<svg xmlns="http://www.w3.org/2000/svg" width="1200" height="420" viewBox="0 0 1200 420" role="img" aria-labelledby="title desc">
  <title id="title">VoiceSafeKit cover</title>
  <desc id="desc">A neon green and black voice assistant safety banner.</desc>
  <rect width="1200" height="420" fill="#030504"/>
  <defs>
    <pattern id="dots" width="20" height="20" patternUnits="userSpaceOnUse">
      <circle cx="1" cy="1" r="1" fill="#00ff84" opacity="0.28"/>
    </pattern>
    <filter id="glow" x="-50%" y="-50%" width="200%" height="200%">
      <feGaussianBlur stdDeviation="5" result="blur"/>
      <feMerge>
        <feMergeNode in="blur"/>
        <feMergeNode in="SourceGraphic"/>
      </feMerge>
    </filter>
  </defs>
  <rect width="1200" height="420" fill="url(#dots)"/>
  <circle cx="1020" cy="88" r="220" fill="#00ff84" opacity="0.08"/>
  <g transform="translate(82 78)">
    <rect x="0" y="0" width="198" height="198" fill="none" stroke="#00ff84" stroke-width="3"/>
    <g fill="#00ff84" filter="url(#glow)">
      <rect x="32" y="32" width="28" height="28"/>
      <rect x="72" y="32" width="28" height="28"/>
      <rect x="112" y="32" width="28" height="28"/>
      <rect x="32" y="72" width="28" height="28"/>
      <rect x="112" y="72" width="28" height="28"/>
      <rect x="32" y="112" width="28" height="28"/>
      <rect x="72" y="112" width="28" height="28"/>
      <rect x="112" y="112" width="28" height="28"/>
    </g>
    <path d="M42 166h112" stroke="#f6fff9" stroke-width="5"/>
  </g>
  <g fill="#f6fff9" font-family="Inter, ui-sans-serif, system-ui, sans-serif">
    <text x="330" y="166" font-size="82" font-weight="300">VoiceSafeKit</text>
    <text x="334" y="220" font-size="28" font-weight="300" fill="#8aa596">Record, check and clean voice transcripts before an LLM sees them.</text>
  </g>
  <g transform="translate(336 274)" font-family="ui-monospace, SFMono-Regular, Consolas, monospace" font-size="18">
    <rect width="132" height="42" fill="none" stroke="#00ff84"/>
    <text x="24" y="27" fill="#00ff84">RECORD</text>
    <rect x="150" width="112" height="42" fill="none" stroke="#00ff84"/>
    <text x="182" y="27" fill="#00ff84">CHECK</text>
    <rect x="280" width="136" height="42" fill="none" stroke="#00ff84"/>
    <text x="306" y="27" fill="#00ff84">PROTECT</text>
  </g>
  <g transform="translate(870 112)" stroke-linecap="square">
    <rect x="0" y="0" width="224" height="170" fill="rgba(0,255,132,0.04)" stroke="#00ff84" stroke-width="2"/>
    <path d="M34 116V84M56 116V48M78 116V68M100 116V32M122 116V76M144 116V44M166 116V92M188 116V60" stroke="#00ff84" stroke-width="9" filter="url(#glow)"/>
    <text x="34" y="148" fill="#f6fff9" font-size="18" font-family="ui-monospace, SFMono-Regular, Consolas, monospace">SAFE / REVIEW</text>
  </g>
</svg>
