<svg xmlns="http://www.w3.org/2000/svg" width="1200" height="420" viewBox="0 0 1200 420" role="img" aria-labelledby="title desc">
  <title id="title">VoiceSafeKit cover</title>
  <desc id="desc">A calm privacy-first voice assistant safety banner.</desc>
  <rect width="1200" height="420" fill="#101211"/>
  <circle cx="160" cy="210" r="104" fill="#1f8f5f" opacity="0.18"/>
  <circle cx="160" cy="210" r="68" fill="#f7f4ee" opacity="0.08"/>
  <g transform="translate(87 132)">
    <rect x="0" y="0" width="146" height="156" rx="32" fill="#f7f4ee"/>
    <path d="M73 36c22 0 40 18 40 40s-18 40-40 40-40-18-40-40 18-40 40-40z" fill="#101211"/>
    <path d="M55 76c10 16 25 24 43 22" fill="none" stroke="#1f8f5f" stroke-width="12" stroke-linecap="round"/>
    <path d="M30 132h86" stroke="#101211" stroke-width="12" stroke-linecap="round"/>
  </g>
  <g fill="#f7f4ee" font-family="Inter, ui-sans-serif, system-ui, sans-serif">
    <text x="310" y="174" font-size="78" font-weight="800">VoiceSafeKit</text>
    <text x="314" y="226" font-size="28" fill="#cfc8ba">Check voice transcripts before an LLM sees them.</text>
  </g>
  <g transform="translate(314 272)" font-family="ui-monospace, SFMono-Regular, Consolas, monospace" font-size="18">
    <rect width="150" height="44" rx="22" fill="#d9f2e3"/>
    <text x="26" y="29" fill="#101211">CAPTURE</text>
    <rect x="166" width="120" height="44" rx="22" fill="#f7e7ce"/>
    <text x="196" y="29" fill="#101211">CHECK</text>
    <rect x="302" width="142" height="44" rx="22" fill="#d9f2e3"/>
    <text x="330" y="29" fill="#101211">PROTECT</text>
  </g>
  <g transform="translate(880 96)" stroke-linecap="round">
    <rect x="0" y="0" width="210" height="228" rx="32" fill="#f7f4ee" opacity="0.95"/>
    <path d="M48 82v64M78 50v128M108 74v80M138 42v144M168 92v44" stroke="#1f8f5f" stroke-width="16"/>
    <path d="M50 190h110" stroke="#101211" stroke-width="10"/>
  </g>
</svg>

